<svg id="Calque_1" data-name="Calque 1" xmlns="http://www.w3.org/2000/svg" viewBox="0 0 113.5 117.5"><title>front demo</title><path d="M57,106.47c-8.22,0-16.43,0-24.65,0a2.11,2.11,0,0,1-2.15-1.21Q18.05,84.08,5.8,62.92a2.76,2.76,0,0,1,0-3.19Q18.09,38.66,30.24,17.52a2.35,2.35,0,0,1,2.39-1.35q24.57.06,49.14,0A2.23,2.23,0,0,1,84,17.46q12.27,21.42,24.64,42.79a1.88,1.88,0,0,1,0,2.17q-12.48,21.5-24.89,43.05a1.89,1.89,0,0,1-1.95,1Q69.41,106.45,57,106.47Zm.06-85.66c-7.3,0-14.61,0-21.91,0a2.27,2.27,0,0,0-2.3,1.28Q21.94,41.13,10.93,60.14a2.1,2.1,0,0,0,0,2.45q11,18.93,21.84,37.9a2.35,2.35,0,0,0,2.36,1.41q21.83-.07,43.66,0a2.26,2.26,0,0,0,2.29-1.28q11-19.11,22.09-38.17a1.87,1.87,0,0,0,0-2.17Q92.14,41.14,81.15,21.95a2,2,0,0,0-2-1.16C71.78,20.83,64.42,20.81,57.06,20.81Z"/><path d="M49.32,48.91c-3.18-4.47-2.23-7.61,4-13-1-.92-2-1.8-3-2.74a1.86,1.86,0,0,1-.21-2.85c.94-1,2-.66,2.85.16,1.34,1.3,2.59,2.69,4.12,4.28,1.41-1.51,2.58-2.84,3.82-4.08s2.31-1.24,3.08-.33c.91,1.09.53,2.09-.39,3s-1.86,1.75-2.8,2.64c6.12,4.93,7.15,8.37,4.15,12.7,3,2,6.17,3.78,9.06,5.93a23.41,23.41,0,0,1,7.41,9.18c1.78,3.9,1.47,7.59-1.42,10.78s-6.41,3.9-10.42,2.5c-.15-.05-.3-.1-.46-.14s-.1,0-.15,0c-3.49,6.7-4.2,7.37-10,9.34,0,1.42,0,2.91,0,4.39,0,1.29-.39,2.27-1.87,2.27s-1.77-1-1.79-2.18c0-1.45,0-2.9,0-4.52-5.18-1.1-8.17-4.57-9.8-9.13a27.87,27.87,0,0,1-5.18.45,9.45,9.45,0,0,1-7.79-13.52c3.08-6.79,8.53-11.16,15.1-14.31l1.17-.54C49,49.14,49.1,49,49.32,48.91ZM60,51.46c1.16,2.9,2.23,5.57,3.3,8.23,1.38,3.42,2.71,6.87,4.18,10.26s4.72,4.78,7.88,3.33a5.8,5.8,0,0,0,2.78-8c-1.89-4.14-5.1-7.12-8.77-9.63A24.29,24.29,0,0,0,60,51.46Zm-5.88.44-.3-.52A63.66,63.66,0,0,0,47.69,54c-5,2.74-9.4,6.27-11.7,11.72a7,7,0,0,0-.28,4,5.53,5.53,0,0,0,5.14,4.16,6,6,0,0,0,5.87-4C49.24,63.91,51.66,57.89,54.11,51.9ZM65,75.49H49a8.48,8.48,0,0,0,8,7A8.42,8.42,0,0,0,65,75.49ZM57.16,47.8a37.34,37.34,0,0,0,4-1,2.42,2.42,0,0,0,1.61-2.83,6.33,6.33,0,0,0-5.37-4.84A5.91,5.91,0,0,0,51.69,43c-.64,2,0,3.44,2,4.1A28.19,28.19,0,0,0,57.16,47.8Zm6.62,23.9c-.62-2.61-.62-2.61-2.88-2.61H52.71c-2,0-2.31.38-2.33,2.61Zm-2.6-6.54c-.51-2.53-.51-2.53-2.79-2.53H55.66c-2.28,0-2.28,0-2.74,2.53Zm-5.92-6.43h3.55L57,54.42Z"/></svg>