<svg id="Calque_1" data-name="Calque 1" xmlns="http://www.w3.org/2000/svg" viewBox="0 0 358.12 311.91"><defs><style>.cls-1{fill:#fbd63b;}</style></defs><title>icon_bee_transparent</title><path class="cls-1" d="M170.16,128.43c-8.47,20.72-16.8,41.5-25.5,62.12-3.9,9.24-11.79,14.18-20.27,13.72-8.16-.44-15.88-6-17.77-14.36a24.15,24.15,0,0,1,1-13.89c7.92-18.84,23-31,40.39-40.49,6.69-3.63,14.08-6,21.16-8.89Z" transform="translate(-1.6 -5.06)"/><path class="cls-1" d="M180.27,137.17,186.4,152H174.14C176.13,147.18,177.91,142.89,180.27,137.17Z" transform="translate(-1.6 -5.06)"/><path class="cls-1" d="M194.58,174H166c1.58-9,1.58-9,9.47-9h9.44C192.82,165,192.82,165,194.58,174Z" transform="translate(-1.6 -5.06)"/><path class="cls-1" d="M161.81,97.62c2.61-8,11.47-14,19.75-13.39,8.45.61,17.34,8.59,18.54,16.72.7,4.67-1.34,8.24-5.56,9.78-4.62,1.69-9.57,2.49-13.85,3.55-4.58-.9-8.51-1.24-12.14-2.48C161.85,109.5,159.61,104.36,161.81,97.62Z" transform="translate(-1.6 -5.06)"/><path class="cls-1" d="M165.33,187.9c9.43,0,18.85,0,28.28,0,7.8,0,7.8.06,9.94,9.06H157.28C157.35,189,158.54,187.9,165.33,187.9Z" transform="translate(-1.6 -5.06)"/><path class="cls-1" d="M152.68,210h55.21c-2.54,14-14.74,24.2-27.63,24C167.12,233.86,155.22,224,152.68,210Z" transform="translate(-1.6 -5.06)"/><path class="cls-1" d="M253.14,174.59c5.13,11.25,1,22.78-9.61,27.68-10.91,5-22,.55-27.21-11.5-5.08-11.69-9.67-23.6-14.45-35.42-3.71-9.2-7.38-18.41-11.4-28.44,12.61,2.38,22.77,7.87,32.37,14.43C235.53,150,246.62,160.29,253.14,174.59Z" transform="translate(-1.6 -5.06)"/><path class="cls-1" d="M339.76,157.36Q301.49,91.29,263.54,25c-1.67-2.92-3.53-4-7-4-25.4.16-50.81.09-76.21.09-25.22,0-50.44.08-75.66-.08-3.78,0-6,1.06-7.94,4.42Q59.08,91.26,21,156.89c-1.87,3.23-1.64,5.44.11,8.47Q59,230.71,96.57,296.25c2,3.46,4,4.88,8.15,4.87q75.38-.24,150.76,0c3.76,0,5.94-1,7.89-4.42q38-66,76.27-131.81C341.19,162.19,341.4,160.21,339.76,157.36ZM262.82,297.28c-1.52,2.64-3.33,3.12-6,3.11-25.53-.07-51.06,0-76.59,0-25.36,0-50.72,0-76.08.07-3.2,0-5-.84-6.66-3.72Q60,231.22,22.14,165.94c-2.1-3.63-2-6.27.06-9.86Q60.08,91,97.59,25.79c1.82-3.17,3.78-4.19,7.38-4.18q75.84.18,151.68,0c3.39,0,5.25,1,7,4q37.89,66.14,76,132.1a5.78,5.78,0,0,1,0,6.7Q301.11,230.78,262.82,297.28ZM254.75,39.44a6.2,6.2,0,0,0-6.23-3.59c-22.7.14-45.41.08-68.12.08-22.54,0-45.09.07-67.63-.07-3.38,0-5.37.94-7.1,4Q72,98.65,38,157.33c-1.67,2.88-1.47,4.86.1,7.57q33.82,58.43,67.41,117c1.77,3.09,3.6,4.36,7.29,4.35q67.38-.21,134.76,0c3.36,0,5.31-.92,7.05-4q33.94-59,68.18-117.83c1.39-2.38,1.57-4.15.11-6.7Q288.67,98.68,254.75,39.44Zm4.83,167.18c-9.79,10.84-22.14,13.46-36,8.63a15.32,15.32,0,0,0-1.59-.49c-.15,0-.35.09-.52.15C209.43,238,207,240.37,187,247.18c0,4.9,0,10,0,15.17,0,4.44-1.35,7.83-6.45,7.83-4.88,0-6.13-3.41-6.18-7.53-.06-5,0-10,0-15.6-17.87-3.78-28.2-15.77-33.85-31.52-6.31.61-12.2,2.13-17.89,1.56-23.22-2.32-36.54-25.42-26.91-46.68,10.62-23.46,29.47-38.53,52.15-49.4,1.34-.64,2.7-1.22,4-1.86.49-.24.95-.57,1.72-1-11-15.42-7.7-26.27,13.72-45-3.44-3.17-6.92-6.22-10.21-9.46-3-3-3.88-6.56-.74-9.84s6.9-2.29,9.83.56c4.63,4.49,9,9.27,14.24,14.79,4.86-5.23,8.9-9.79,13.18-14.1,3.85-3.88,8-4.3,10.63-1.16,3.16,3.76,1.85,7.22-1.33,10.26s-6.42,6.05-9.68,9.13c21.12,17,24.69,28.89,14.34,43.86,10.46,6.79,21.3,13.07,31.29,20.49a80.87,80.87,0,0,1,25.59,31.69C270.63,182.85,269.54,195.58,259.58,206.62Z" transform="translate(-1.6 -5.06)"/><path class="cls-1" d="M358.54,157.29Q315.87,83.47,273.46,9.52c-1.92-3.35-4-4.45-7.79-4.45q-84.84.2-169.68,0c-4,0-6.22,1.13-8.26,4.68q-42,73-84.34,145.75c-2.34,4-2.42,7-.07,11q42.34,73,84.29,146.29C89.46,316,91.48,317,95.06,317c28.37-.14,56.74-.08,85.11-.08q42.84,0,85.68,0c3,0,5-.53,6.72-3.48Q315.38,239,358.51,164.79C360.1,162,360.13,160,358.54,157.29Zm-18.9,7.57q-38.27,65.84-76.27,131.81c-2,3.39-4.13,4.43-7.89,4.42q-75.39-.16-150.76,0c-4.12,0-6.17-1.41-8.15-4.87Q59,230.7,21.15,165.36c-1.75-3-2-5.24-.11-8.47Q59.11,91.27,96.77,25.42c1.93-3.36,4.16-4.45,7.94-4.42,25.22.16,50.44.08,75.66.08,25.4,0,50.81.07,76.21-.09,3.43,0,5.29,1.1,7,4q38,66.25,76.22,132.35C341.4,160.21,341.19,162.19,339.64,164.86Z" transform="translate(-1.6 -5.06)"/></svg>