<svg xmlns="http://www.w3.org/2000/svg" viewBox="0 0 380.13 130.78"><defs><style>.cls-1{fill:#0cb6a1;}</style></defs><title>logo_vert_1</title><g id="Calque_2" data-name="Calque 2"><g id="Calque_1-2" data-name="Calque 1"><path class="cls-1" d="M72.65,129.74c-6.52,0-11.13-5.18-11.13-11.89,0-7.1,4.8-12.09,11.32-12.09,6.91,0,11.32,5,11.32,12.09,0,6.71-4.41,11.89-11.32,11.89Z"/><path class="cls-1" d="M88,124.59s-2-51.5,56-36.5C144,88.09,141.51,142.59,88,124.59Z"/><path class="cls-1" d="M56,124.59s2-51.5-56-36.5C0,88.09,2.5,142.59,56,124.59Z"/><path class="cls-1" d="M64.05,94.79,63.67,90C62.52,79.63,66,68.32,75.56,56.8,84.19,46.45,89,39.16,89,30.52,89,20.74,82.85,14,70.77,14,63.86,14,56.19,16.13,51.39,20L46.78,7.88C53.12,3.09,64.05,0,74.22,0c22.06,0,32,13.81,32,28.39,0,12.85-7.29,22.45-16.5,33.19C81.32,71.77,78.25,80.21,78.82,90l.19,4.8Z"/><path class="cls-1" d="M188.75,10.94q0,5.59-3.49,8.55t-9.93,3h-3.15V34.75h-7.34V.14H175.9q6.3,0,9.58,2.71T188.75,10.94Zm-16.57,5.49h2.41a8,8,0,0,0,5.07-1.34,4.68,4.68,0,0,0,1.68-3.89,4.8,4.8,0,0,0-1.41-3.81,6.6,6.6,0,0,0-4.41-1.23h-3.34Z"/><path class="cls-1" d="M195.29,34.75V.14h7.34V28.69h14v6.06Z"/><path class="cls-1" d="M243.86,34.75l-2.51-8.24H228.74l-2.51,8.24h-7.91L230.54,0h9l12.26,34.75ZM239.6,20.36q-3.48-11.2-3.92-12.66t-.63-2.32q-.78,3-4.47,15Z"/><path class="cls-1" d="M286.83,34.75H277.5L262.45,8.57h-.21q.45,6.94.45,9.9V34.75h-6.56V.14h9.26l15,25.92h.17q-.36-6.75-.36-9.54V.14h6.6Z"/><path class="cls-1" d="M308.89,34.75h-7.34V6.25h-9.4V.14h26.13V6.25h-9.4Z"/><path class="cls-1" d="M343.55,34.75H323.62V.14h19.93v6H331v7.6h11.72v6H331v8.92h12.59Z"/><path class="cls-1" d="M358.11,21.47V34.75h-7.34V.14h10.08q7.05,0,10.44,2.57t3.39,7.8A9.18,9.18,0,0,1,373,15.94a11.12,11.12,0,0,1-4.76,3.73q7.81,11.67,10.18,15.08h-8.14L362,21.47Zm0-6h2.37a9.06,9.06,0,0,0,5.14-1.16,4.14,4.14,0,0,0,1.66-3.65,3.79,3.79,0,0,0-1.69-3.5,10.27,10.27,0,0,0-5.24-1h-2.23Z"/><path class="cls-1" d="M223.09,86q0,10.69-3.79,17.92a23.17,23.17,0,0,1-11.12,10.59l14.58,16.28H206.31l-11.1-13.59h-1q-13.92,0-21.38-8.08t-7.46-23.2q0-15.11,7.48-23.09t21.44-8q14,0,21.36,8T223.09,86Zm-44.2,0q0,10.15,3.85,15.28t11.52,5.14q15.36,0,15.37-20.42T194.33,65.53q-7.66,0-11.56,5.16T178.88,86Z"/><path class="cls-1" d="M284.94,55.8V95a22.61,22.61,0,0,1-3,11.77,19.56,19.56,0,0,1-8.68,7.75,31,31,0,0,1-13.42,2.69q-11.68,0-18.14-6t-6.46-16.39v-39H248V92.87q0,7,2.82,10.27t9.32,3.27q6.3,0,9.13-3.29t2.84-10.33v-37Z"/><path class="cls-1" d="M354.74,86q0,15-7.46,23.11t-21.38,8.08q-13.92,0-21.38-8.08t-7.46-23.2q0-15.11,7.48-23.09t21.44-8q14,0,21.36,8T354.74,86Zm-44.2,0q0,10.15,3.85,15.28t11.52,5.14q15.36,0,15.37-20.42T326,65.53q-7.66,0-11.56,5.16T310.54,86Z"/><path class="cls-1" d="M367.29,116.36V55.8h12.84v60.57Z"/></g></g></svg>